<svg width="652" height="448" viewBox="0 0 652 448" fill="none" xmlns="http://www.w3.org/2000/svg">
<path d="M57.6616 178.276L149.002 82.7837C182.076 48.2065 237.117 47.5949 270.951 81.4289L366.414 176.891C400.248 210.725 399.636 265.767 365.059 298.841L269.567 390.181C236.059 422.232 183.085 421.643 150.297 388.856L58.9867 297.545C26.1994 264.758 25.6109 211.784 57.6616 178.276Z" fill="#398FFD"/>
<path d="M98.7871 338.076L318.316 129.523L428.08 238.556L269.366 390.37C235.938 422.344 183.115 421.845 150.297 389.245L98.7871 338.076Z" fill="#44ADFB"/>
<path d="M281.582 158.514L372.922 63.022C405.996 28.4447 461.037 27.8332 494.871 61.6672L590.334 157.13C624.167 190.964 623.556 246.005 588.979 279.079L493.486 370.419C459.979 402.47 407.005 401.882 374.217 369.094L282.907 277.784C250.119 244.996 249.531 192.022 281.582 158.514Z" fill="#7859F9"/>
<path d="M322.707 318.318L542.236 109.766L589.92 157.132C623.946 190.931 623.425 246.131 588.767 279.282L493.286 370.612C459.858 402.586 407.035 402.087 374.217 369.487L322.707 318.318Z" fill="#4C21FF"/>
</svg>
